<?xml version="1.0"?>
<svg xmlns="http://www.w3.org/2000/svg" viewBox="42.85 160.85 394 164" id="svg2" version="1.1" style="max-height: 500px;background-color:transparent;" width="394" height="164">
  <defs id="defs6">
    <clipPath id="clipPath18" clipPathUnits="userSpaceOnUse">
      <path id="path16" clip-rule="evenodd" d="M 0,0 H 1562.5 V 1562.5 H 0 Z"/>
    </clipPath>
    <clipPath id="clipPath30" clipPathUnits="userSpaceOnUse">
      <path id="path28" clip-rule="evenodd" d="M 0,0 H 1562.5 V 1562.5 H 0 Z"/>
    </clipPath>
    <clipPath id="clipPath42" clipPathUnits="userSpaceOnUse">
      <path id="path40" clip-rule="evenodd" d="m 355.47064,529.68536 h 850.00006 v 253.125 H 355.47064 Z"/>
    </clipPath>
    <clipPath id="clipPath62" clipPathUnits="userSpaceOnUse">
      <path id="path60" clip-rule="evenodd" d="M 0,0 H 1562.5 V 1562.5 H 0 Z"/>
    </clipPath>
    <clipPath id="clipPath80" clipPathUnits="userSpaceOnUse">
      <path id="path78" d="M 0,0 H 805 V 51 H 0 Z"/>
    </clipPath>
  </defs>
  <g transform="matrix(1.3333333,0,0,-1.3333333,0,510.71997)" id="g8">
    <g transform="matrix(0.23999999,0,0,-0.23999999,0,383.03998)" id="g10">
      <g id="g12">
        <g clip-path="url(#clipPath18)" id="g14">
          <g transform="scale(3.125)" id="g20">
            <path id="path22" style="fill:none;fill-opacity:1;fill-rule:nonzero;stroke:none" d="M 0,0 H 500 V 500 H 0 Z"/>
          </g>
        </g>
      </g>
      <g id="g24">
        <g clip-path="url(#clipPath30)" id="g26">
          <g transform="scale(3.125)" id="g32">
            <path id="path34" style="fill:none;fill-opacity:1;fill-rule:nonzero;stroke:none" d="M 0,0 H 500 V 500 H 0 Z"/>
          </g>
        </g>
      </g>
      <g id="g36">
        <g clip-path="url(#clipPath42)" id="g38">
          <g transform="matrix(0.19611952,0,0,0.19611952,355.47064,529.89716)" id="g44">
            <path id="path46" style="fill:#008037;fill-opacity:1;fill-rule:evenodd;stroke:none" d="m 3324.46,942.87 c 0,-9.37 7.6101,-16.97999 16.9799,-16.97999 9.3899,0 16.98,7.60999 16.98,16.97999 v 169.25 c 22.93,-3.83 42.1101,-10.38 57.51,-19.65 0.2801,-0.19 0.5801,-0.34 0.8799,-0.5 17.7901,-10.9101 30.51,-25.7901 38.1599,-44.58 8.1699,-20.04 10.8301,-44.77 7.98,-74.15001 -7.0701,-73.06 -47.5901,-172.88 -121.52,-299.40002 -73.9299,126.52002 -114.44,226.33996 -121.52,299.40002 -2.8401,29.39001 -0.18,54.11001 7.9799,74.15001 7.66,18.8001 20.3899,33.6701 38.18,44.58 0.28,0.16 0.5801,0.31 0.8601,0.5 15.4299,9.27 34.5901,15.8199 57.51,19.65 V 942.87 h 0.02 z m 0,203.5 c -29.71,-4.35 -54.72,-12.63 -75.0201,-24.85 -0.32,-0.1999 -0.6499,-0.4 -0.9599,-0.62 -24.23,-14.8399 -41.5701,-35.0999 -52.01,-60.77 -10.21,-25.0699 -13.6201,-55.09 -10.23,-90.05999 8.02,-82.94001 54.8799,-195.60004 140.54,-337.98999 0.48,-0.82001 1.02,-1.59998 1.6299,-2.34003 l 0.03,-0.03 0.21,-0.23999 0.07,-0.1 0.2099,-0.22999 0.06,-0.07 0.23,-0.22998 0.09,-0.1 0.1499,-0.14001 0.1599,-0.15998 0.07,-0.08 c 0.18,-0.16999 0.3702,-0.34003 0.5501,-0.5 l 0.1001,-0.09 0.23,-0.20001 0.04,-0.03 c 1.0901,-0.90998 2.28,-1.66998 3.54,-2.27002 l 0.1102,-0.06 0.1398,-0.07 c 2.23,-1.02002 4.5801,-1.52002 6.92,-1.53003 h 0.26 c 2.3401,0.01 4.7099,0.52002 6.9299,1.53003 l 0.1299,0.07 0.1299,0.06 c 1.26,0.59003 2.4499,1.35998 3.54,2.27002 l 0.03,0.03 0.24,0.20001 0.08,0.09 c 0.19,0.15002 0.3701,0.32 0.5501,0.5 l 0.08,0.08 0.1399,0.15998 0.1599,0.14001 0.07,0.08 c 0.19,0.19 0.3401,0.35998 0.51,0.54999 l 0.08,0.08 0.2,0.23999 0.03,0.03 c 0.6101,0.73999 1.1499,1.52002 1.6299,2.34003 85.6699,142.39001 132.52,255.03998 140.54,337.98999 3.3899,34.96997 -0.03,64.99997 -10.22,90.05997 -10.4599,25.6701 -27.8,45.9301 -52.03,60.77 -0.3101,0.23 -0.6399,0.4301 -0.97,0.62 -20.28,12.22 -45.31,20.5 -75.02,24.85 v 47.84 c 0,9.38 -7.6001,16.9799 -16.98,16.9799 -9.3701,0 -16.9799,-7.5999 -16.9799,-16.9799 v -47.84 l 0.01,0.02 z"/>
            <path id="path48" style="fill:#7ed957;fill-opacity:1;fill-rule:nonzero;stroke:none" d="m 17.01,1280.54 c -9.3999994,0 -17.01,-7.62 -17.01,-17.01 0,-9.4 7.6199999,-17.01 17.01,-17.01 H 394.66 V 902.89001 c 0,-9.40002 7.62,-17.01001 17.01001,-17.01001 h 268.78 V 596.69 c 0,-5.27002 2.40003,-9.98999 6.16999,-13.10998 l 332.5,-318.93 c 6.59,-6.33999 16.99,-6.29 23.52,0 l 111.15,106.60999 V 17.029999 c 0,-9.3999998 7.62,-17.01000045 17.0101,-17.01000045 H 1762.8 c 9.4001,0 17.0101,7.61999985 17.0101,17.01000045 V 370.87 c 0,5.60998 -2.72,10.58999 -6.9101,13.69 L 1575.67,555.48999 V 1246.54 h 122.48 V 670.28003 c 0,-5.60999 2.72,-10.59003 6.9101,-13.69 l 427.76,-366.65 c 6.82,-5.83999 16.9499,-5.30999 23.1399,1.01001 l 333.2099,326.41001 c 3.5601,3.5 5.25,8.19 5.0501,12.82 l 0.4299,159.18 h 554.21 c 9.3999,0 17.01,7.61999 17.01,17.01001 0,0.46002 -0.02,0.92999 -0.06,1.38 l 3.27,438.78994 h 1214.8098 c 9.4,0 17.0098,7.62 17.0098,17.0101 0,9.4 -7.6201,17.01 -17.0098,17.01 H 3052.2599 v -0.07 c -9.3301,0 -16.9099,-7.54 -16.95,-16.88 l -3.28,-440.23998 h -537.3001 l 1.18,440.17008 c 0,9.36 -7.5901,16.9499 -16.95,16.9499 v 0.07 h -415.0801 c -9.3999,0 -17.01,-7.62 -17.01,-17.01 0,-0.49 0.02,-0.97 0.06,-1.44 l -1.7,-455.73998 c 0,-9.35999 7.5901,-16.95002 16.95,-16.95002 v -0.07 h 398.56 l -0.4099,-152.73999 -317.26,-310.79001 -410.92,352.20999 V 1263.54 c 0,9.4001 -7.62,17.0101 -17.01,17.0101 h -156.51 c -9.4001,0 -17.01,-7.62 -17.01,-17.0101 V 547.78003 h 0.05 c 0,-4.75 1.99,-9.46997 5.86,-12.82001 l 198.22,-171.78998 V 34.040039 h -557.98 V 403.89005 l 188.26,180.57003 c 3.46,3.33002 5.1999,7.78003 5.1999,12.22998 h 0.05 V 1263.54 c 0,9.4001 -7.62,17.0101 -17.01,17.0101 h -193.51 c -9.4001,0 -17.01,-7.62 -17.01,-17.0101 V 418.28003 l -122.9101,-117.89002 -316.41001,303.5 v 282 h 180.32 c 9.40003,0 17.01001,7.62 17.01001,17.01001 V 1263.54 c 0,9.4001 -7.61999,17.0101 -17.01001,17.0101 H 697.41958 c -9.40003,0 -17.01001,-7.62 -17.01001,-17.0101 V 919.91003 H 428.63955 V 1263.54 c 0,9.4001 -7.62,17.0101 -17.01001,17.0101 H 16.959525 l 0.05038,-0.01 z M 877.79004,919.90002 h -163.31 V 1246.52 h 163.31 z M 1347.3101,603.87 1187.8301,450.89999 V 1246.52 h 159.48 z m 1114.6999,642.65 -1.1299,-423.16001 h -381.6499 l 1.5701,423.16001 h 381.21 z"/>
            <path id="path50" style="fill:#008037;fill-opacity:1;fill-rule:evenodd;stroke:none" d="m 3746.3999,942.87 c 0,-9.37 7.6101,-16.97999 16.98,-16.97999 9.3899,0 16.98,7.60999 16.98,16.97999 v 169.25 c 22.9299,-3.83 42.1101,-10.38 57.51,-19.65 0.28,-0.19 0.5801,-0.34 0.8799,-0.5 17.79,-10.9101 30.51,-25.7901 38.1599,-44.58 8.1699,-20.04 10.83,-44.77 7.9799,-74.15001 -7.07,-73.06 -47.59,-172.88 -121.52,-299.40002 -73.9299,126.52002 -114.4399,226.33996 -121.52,299.40002 -2.8401,29.39001 -0.1799,54.11001 7.98,74.15001 7.6599,18.8001 20.3899,33.6701 38.1799,44.58 0.2801,0.16 0.5801,0.31 0.8601,0.5 15.43,9.27 34.5901,15.8199 57.51,19.65 V 942.87 h 0.02 z m 0,203.5 c -29.71,-4.35 -54.72,-12.63 -75.02,-24.85 -0.3201,-0.1999 -0.6499,-0.4 -0.96,-0.62 -24.23,-14.8399 -41.57,-35.0999 -52.01,-60.77 -10.2099,-25.0699 -13.6201,-55.09 -10.23,-90.05999 8.0201,-82.94001 54.8799,-195.60004 140.5401,-337.98999 0.48,-0.82001 1.02,-1.59998 1.6299,-2.34003 l 0.03,-0.03 0.2099,-0.23999 0.07,-0.1 0.21,-0.22999 0.06,-0.07 0.23,-0.22998 0.09,-0.1 0.1499,-0.14001 0.1599,-0.15998 0.07,-0.08 c 0.1799,-0.16999 0.3701,-0.34003 0.55,-0.5 l 0.1001,-0.09 0.23,-0.20001 0.04,-0.03 c 1.0901,-0.90998 2.2801,-1.66998 3.5401,-2.27002 l 0.1101,-0.06 0.1399,-0.07 c 2.23,-1.02002 4.5801,-1.52002 6.9199,-1.53003 h 0.26 c 2.3401,0.01 4.71,0.52002 6.93,1.53003 l 0.1298,0.07 0.1299,0.06 c 1.26,0.59003 2.45,1.35998 3.5401,2.27002 l 0.03,0.03 0.24,0.20001 0.08,0.09 c 0.1899,0.15002 0.3701,0.32 0.55,0.5 l 0.08,0.08 0.1399,0.15998 0.1599,0.14001 0.07,0.08 c 0.1899,0.19 0.34,0.35998 0.51,0.54999 l 0.08,0.08 0.2,0.23999 0.03,0.03 c 0.6101,0.73999 1.1499,1.52002 1.6299,2.34003 85.6699,142.39001 132.52,255.03998 140.54,337.98999 3.3899,34.96997 -0.03,64.99997 -10.2199,90.05997 -10.46,25.6701 -27.8001,45.9301 -52.0301,60.77 -0.31,0.23 -0.6398,0.4301 -0.9699,0.62 -20.2801,12.22 -45.3101,20.5 -75.02,24.85 v 47.84 c 0,9.38 -7.6001,16.9799 -16.98,16.9799 -9.3701,0 -16.98,-7.5999 -16.98,-16.9799 v -47.84 l 0.01,0.02 z"/>
            <path id="path52" style="fill:#008037;fill-opacity:1;fill-rule:evenodd;stroke:none" d="m 4168.3398,942.87 c 0,-9.37 7.6099,-16.97999 16.98,-16.97999 9.3902,0 16.98,7.60999 16.98,16.97999 v 169.25 c 22.9302,-3.83 42.1099,-10.38 57.5098,-19.65 0.2798,-0.19 0.58,-0.34 0.8799,-0.5 17.79,-10.9101 30.5097,-25.7901 38.1601,-44.58 8.1699,-20.04 10.8301,-44.77 7.98,-74.15001 -7.0698,-73.06 -47.5899,-172.88 -121.52,-299.40002 -73.9302,126.52002 -114.44,226.33996 -121.52,299.40002 -2.8401,29.39001 -0.18,54.11001 7.9799,74.15001 7.6599,18.8001 20.3899,33.6701 38.1802,44.58 0.2798,0.16 0.5801,0.31 0.8599,0.5 15.4301,9.27 34.5898,15.8199 57.5097,19.65 V 942.87 h 0.02 z m 0,203.5 c -29.7099,-4.35 -54.7202,-12.63 -75.02,-24.85 -0.32,-0.1999 -0.6499,-0.4 -0.9599,-0.62 -24.23,-14.8399 -41.5701,-35.0999 -52.01,-60.77 -10.21,-25.0699 -13.6202,-55.09 -10.23,-90.05999 8.02,-82.94001 54.8799,-195.60004 140.5398,-337.98999 0.4799,-0.82001 1.02,-1.59998 1.6299,-2.34003 l 0.03,-0.03 0.21,-0.23999 0.07,-0.1 0.21,-0.22999 0.06,-0.07 0.23,-0.22998 0.09,-0.1 0.1499,-0.14001 0.1601,-0.15998 0.07,-0.08 c 0.1802,-0.16999 0.3702,-0.34003 0.5499,-0.5 l 0.1001,-0.09 0.2299,-0.20001 0.04,-0.03 c 1.0898,-0.90998 2.2798,-1.66998 3.54,-2.27002 l 0.1099,-0.06 0.1401,-0.07 c 2.23,-1.02002 4.5801,-1.52002 6.9199,-1.53003 h 0.2598 c 2.3398,0.01 4.71,0.52002 6.9302,1.53003 l 0.1299,0.07 0.1298,0.06 c 1.2598,0.59003 2.4502,1.35998 3.5401,2.27002 l 0.03,0.03 0.2402,0.20001 0.08,0.09 c 0.1899,0.15002 0.3701,0.32 0.5498,0.5 l 0.08,0.08 0.1401,0.15998 0.1602,0.14001 0.07,0.08 c 0.1899,0.19 0.3398,0.35998 0.5097,0.54999 l 0.08,0.08 0.2002,0.23999 0.03,0.03 c 0.6099,0.73999 1.1499,1.52002 1.6299,2.34003 85.6699,142.39001 132.52,255.03998 140.54,337.98999 3.3902,34.96997 -0.03,64.99997 -10.2202,90.05997 -10.46,25.6701 -27.7998,45.9301 -52.0298,60.77 -0.31,0.23 -0.6401,0.4301 -0.9702,0.62 -20.2798,12.22 -45.3101,20.5 -75.02,24.85 v 47.84 c 0,9.38 -7.6001,16.9799 -16.98,16.9799 -9.3701,0 -16.98,-7.5999 -16.98,-16.9799 v -47.84 l 0.012,0.02 z"/>
            <path id="path54" style="fill:#008037;fill-opacity:1;fill-rule:evenodd;stroke:none" d="m 180.8,942.87 c 0,-9.37 7.61,-16.97999 16.98,-16.97999 9.39,0 16.97999,7.60999 16.97999,16.97999 v 169.25 c 22.93001,-3.83 42.11001,-10.38 57.51,-19.65 0.28,-0.19 0.57999,-0.34 0.88,-0.5 17.79001,-10.9101 30.51001,-25.7901 38.16001,-44.58 8.17001,-20.04 10.82998,-44.77 7.98001,-74.15001 -7.07001,-73.06 -47.59,-172.88 -121.51999,-299.40002 -73.93,126.52002 -114.440003,226.33996 -121.519997,299.40002 -2.840004,29.39001 -0.18,54.11001 7.980003,74.15001 7.660004,18.8001 20.390004,33.6701 38.180004,44.58 0.28,0.16 0.58,0.31 0.86,0.5 15.43,9.27 34.59,15.8199 57.51,19.65 V 942.87 h 0.02 z m 0,203.5 c -29.71,-4.35 -54.72,-12.63 -75.01999,-24.85 -0.32,-0.1999 -0.65001,-0.4 -0.96,-0.62 -24.229998,-14.8399 -41.570002,-35.0999 -52.010001,-60.77 -10.209999,-25.0699 -13.619999,-55.09 -10.23,-90.05999 C 50.60001,887.13 97.460007,774.46997 183.12,632.08002 c 0.47999,-0.82001 1.02,-1.59998 1.63,-2.34003 l 0.03,-0.03 0.21001,-0.23999 0.07,-0.1 0.21001,-0.22999 0.06,-0.07 0.22999,-0.22998 0.09,-0.1 0.14999,-0.14001 0.16001,-0.15998 0.07,-0.08 c 0.18,-0.16999 0.37,-0.34003 0.55001,-0.5 l 0.1,-0.09 0.23,-0.20001 0.04,-0.03 c 1.09,-0.90998 2.28,-1.66998 3.54,-2.27002 l 0.11,-0.06 0.14,-0.07 c 2.22999,-1.02002 4.58,-1.52002 6.91999,-1.53003 h 0.26 c 2.33999,0.01 4.71,0.52002 6.93001,1.53003 l 0.13,0.07 0.13001,0.06 c 1.25999,0.59003 2.44999,1.35998 3.53999,2.27002 l 0.03,0.03 0.24,0.20001 0.08,0.09 c 0.19,0.15002 0.36999,0.32 0.55,0.5 l 0.08,0.08 0.14,0.15998 0.16,0.14001 0.07,0.08 c 0.19,0.19 0.34,0.35998 0.51,0.54999 l 0.08,0.08 0.19999,0.23999 0.03,0.03 c 0.61,0.73999 1.15,1.52002 1.63001,2.34003 85.67,142.39001 132.52,255.03998 140.53999,337.98999 3.39002,34.96997 -0.03,64.99997 -10.22,90.05997 -10.45999,25.6701 -27.79999,45.9301 -52.03,60.77 -0.31,0.23 -0.64001,0.4301 -0.97,0.62 -20.28,12.22 -45.31,20.5 -75.01999,24.85 v 47.84 c 0,9.38 -7.60001,16.9799 -16.98,16.9799 -9.36999,0 -16.97999,-7.5999 -16.97999,-16.9799 v -47.84 l 0.01,0.02 z"/>
          </g>
        </g>
      </g>
      <g id="g56">
        <g clip-path="url(#clipPath62)" id="g58">
          <g transform="matrix(3.125,0,0,3.125,231.97198,817.30548)" id="g64">
            <text id="text68" style="font-variant:normal;font-weight:bold;font-size:25.73px;font-family:Lastica;-inkscape-font-specification:Lastica-Bold;writing-mode:lr-tb;fill:#ffd21f;fill-opacity:1;fill-rule:nonzero;stroke:none" transform="translate(14.109375,25)" xml:space="preserve">
              <tspan id="tspan66" y="0" x="0 29.460236 58.920471 89.159302 119.24744">RBANE</tspan>
            </text>
            <text id="text72" style="font-variant:normal;font-weight:bold;font-size:25.73px;font-family:Lastica;-inkscape-font-specification:Lastica-Bold;writing-mode:lr-tb;fill:#ffd21f;fill-opacity:1;fill-rule:nonzero;stroke:none" transform="translate(211.3125,25)" xml:space="preserve">
              <tspan id="tspan70" y="0" x="0 28.832336 58.292572 69.782333 98.61467 127.44701">ORIZON</tspan>
            </text>
          </g>
          <g transform="translate(380,937)" id="g74">
            <g id="g76"/>
            <g id="g90">
              <g id="g88" clip-path="url(#clipPath80)">
                <g id="g86" transform="matrix(2.210052,0,0,2.210052,-61.82608,-10.90863)">
                  <text id="text84" style="font-variant:normal;font-weight:normal;font-size:24.76px;font-family:BantayogLight;-inkscape-font-specification:BantayogLight;writing-mode:lr-tb;fill:#000000;fill-opacity:1;fill-rule:nonzero;stroke:none" transform="translate(28.5625,22)" xml:space="preserve">
                    <tspan id="tspan82" y="0" x="0 13.019135 28.463776 43.04216 57.224548 63.858185 79.599823 95.539459 104.67285 117.07324 132.51788 146.05678 155.19017 168.2093 182.26794 195.98009 208.92497 215.55861 231.30025 244.83914 253.97253 269.59042 283.07983 292.2132 306.7916 315.92499 330.40436 337.03802 349.43842">shaping the skyline of a city</tspan>
                  </text>
                </g>
              </g>
            </g>
          </g>
          <g transform="matrix(3.125,0,0,3.125,-6.4948344,768.20691)" id="g92">
            <text id="text96" style="font-variant:normal;font-weight:bold;font-size:41.73px;font-family:Lastica;-inkscape-font-specification:Lastica-Bold;writing-mode:lr-tb;fill:#ffd21f;fill-opacity:1;fill-rule:nonzero;stroke:none" transform="translate(49.03125,42)" xml:space="preserve">
              <tspan id="tspan94" y="0" x="0">U</tspan>
            </text>
          </g>
          <g transform="matrix(3.125,0,0,3.125,612.91296,768.20691)" id="g98">
            <text id="text102" style="font-variant:normal;font-weight:bold;font-size:41.73px;font-family:Lastica;-inkscape-font-specification:Lastica-Bold;writing-mode:lr-tb;fill:#ffd21f;fill-opacity:1;fill-rule:nonzero;stroke:none" transform="translate(48.484375,42)" xml:space="preserve">
              <tspan id="tspan100" y="0" x="0">H</tspan>
            </text>
          </g>
        </g>
      </g>
    </g>
    <path id="path104" style="fill:#000000;fill-opacity:0;fill-rule:nonzero;stroke:none" d="m 85.31295,195.54 h 204.3741 v 60.37551 H 85.31295 Z"/>
  </g>
</svg>
